<svg width="40px" height="40px" viewBox="0 0 120 121" xmlns="http://www.w3.org/2000/svg"
    xmlns:xlink="http://www.w3.org/1999/xlink" version="1.1">
    <g id="logo__item--logo_0">
        <g id="group-1">
            <g id="group-2">
                <path id="path-0"
                    d="M39.506 0.247 L22.42 0.247 C9.975 0.247 0 10.321 0 22.666 L0 44.395 C1.086 39.654 2.667 35.111 4.938 30.666 12.148 16.444 24.691 5.58 39.506 0.247 Z"
                    fill="#999999" fill-opacity="1" stroke="none" />
                <path id="path-1"
                    d="M59.061 46.172 C52.049 46.172 46.321 51.901 46.321 58.913 46.321 65.925 52.049 71.654 59.061 71.654 66.074 71.654 71.802 65.925 71.802 58.913 71.802 51.901 66.074 46.172 59.061 46.172 Z M55.901 54.271 C55.901 54.271 55.802 54.37 55.802 54.37 55.802 54.37 55.703 54.469 55.703 54.469 55.802 54.37 55.802 54.37 55.901 54.271 Z"
                    fill="#999999" fill-opacity="1" stroke="none" />
                <path id="path-2"
                    d="M97.58 0.247 L80.296 0.247 79.012 3.901 C59.852 -2.617 38.123 1.531 22.716 14.667 6.914 28.296 -0.494 49.728 3.654 70.172 7.407 88.543 20.247 104.345 37.531 111.752 56.889 120.049 80.197 116.987 96.592 103.654 97.086 103.259 97.58 102.765 98.073 102.37 98.073 102.172 97.975 101.876 97.975 101.678 97.975 99.604 99.654 98.024 101.629 98.024 103.703 98.024 105.283 99.703 105.283 101.678 105.283 103.752 103.604 105.333 101.629 105.333 101.432 105.333 101.234 105.333 101.036 105.234 91.456 113.629 79.308 118.863 66.765 120.147 L97.58 120.147 C110.024 120.147 119.999 110.073 119.999 97.728 L119.999 22.666 C120.098 10.222 110.024 0.247 97.58 0.247 Z M40.197 106.518 C25.975 100.493 14.914 88.246 10.469 73.432 3.753 50.518 14.025 25.234 34.667 13.481 L36.741 17.136 C22.815 25.037 13.63 39.852 12.741 55.753 11.852 71.555 19.062 87.16 31.704 96.641 41.086 103.752 53.037 107.11 64.79 106.024 75.95 105.036 86.222 99.999 94.123 92.296 L97.086 95.259 C82.074 109.975 59.654 114.617 40.197 106.518 Z M97.876 79.753 C98.271 80.345 98.469 81.036 98.469 81.728 98.469 83.802 96.79 85.382 94.814 85.382 92.74 85.382 91.16 83.703 91.16 81.728 91.16 79.654 92.839 78.074 94.814 78.074 L95.308 78.074 C103.407 63.259 101.53 44 89.58 31.259 82.074 23.259 71.605 18.913 61.037 18.815 60.543 20.395 59.16 21.481 57.481 21.481 56 21.481 54.716 20.592 54.123 19.308 49.876 20 45.728 21.284 41.876 23.358 24.296 32.642 16 54.271 23.111 72.938 30.123 91.506 50.469 102.37 69.827 97.728 77.037 95.95 83.555 92.296 88.79 87.061 L90.962 89.234 C76.049 103.851 52.444 106.024 35.457 93.876 18.667 81.827 12.642 59.111 21.234 40.642 27.358 27.308 40 18.321 54.024 16.148 54.617 14.864 55.901 14.074 57.382 14.074 58.666 14.074 59.753 14.667 60.444 15.654 63.605 15.654 66.864 15.95 70.024 16.741 86.617 20.494 99.654 34.123 102.814 50.913 104.493 60.691 102.715 71.061 97.876 79.753 Z M27.753 40.938 C27.753 38.864 29.432 37.284 31.407 37.284 33.383 37.284 35.062 38.963 35.062 40.938 35.062 43.012 33.383 44.592 31.407 44.592 24.592 58.617 29.234 76.296 42.37 85.086 55.012 93.58 72.197 91.703 82.962 81.036 L85.135 83.209 C73.185 95.061 53.926 96.938 40 87.16 26.074 77.382 21.333 58.419 28.543 43.21 28.148 42.814 27.753 41.926 27.753 40.938 Z M85.037 65.234 L82.074 64.444 C84.641 55.16 80.691 44.987 72.592 39.753 64.395 34.419 53.432 35.111 45.926 41.333 38.222 47.753 35.654 58.814 39.802 68 43.654 76.296 52.345 81.629 61.531 81.135 65.975 80.938 70.123 79.357 73.679 76.79 73.382 76.296 73.284 75.703 73.284 75.111 73.284 73.037 74.963 71.456 76.938 71.456 79.012 71.456 80.592 73.135 80.592 75.111 80.592 77.185 78.913 78.765 76.938 78.765 76.642 78.765 76.444 78.765 76.148 78.666 64.493 87.654 46.815 85.185 38.716 72.444 33.284 63.95 33.481 52.592 39.111 44.296 44.444 36.494 54.024 32.148 63.407 33.333 78.617 35.111 89.086 50.419 85.037 65.234 Z M74.765 58.913 C74.765 67.604 67.753 74.617 59.061 74.617 50.37 74.617 43.358 67.604 43.358 58.913 43.259 50.222 50.37 43.21 59.061 43.21 67.654 43.21 74.765 50.222 74.765 58.913 Z"
                    fill="#999999" fill-opacity="1" stroke="none" />
                <path id="path-3"
                    d="M7.802 91.604 C4.148 85.777 1.58 79.456 0 72.839 L0 97.827 C0 110.271 10.074 120.246 22.42 120.246 L53.432 120.246 C34.765 118.172 17.778 107.407 7.802 91.604 Z"
                    fill="#999999" fill-opacity="1" stroke="none" />
            </g>
        </g>
    </g>
</svg>