<svg width="100%" height="40px" viewBox="0 0 209 55" xmlns="http://www.w3.org/2000/svg"
    xmlns:xlink="http://www.w3.org/1999/xlink" version="1.1">
    <g id="logo__item--business">
        <g id="group">
            <defs>
                <text id="string" transform="matrix(1.0 0.0 0.0 1.0 58.83984375 14.74609375)"
                    font-family="Helvetica, Helvetica" font-size="32" x="1.0" y="25.0"
                    text-decoration="none">DataTurbo</text>
            </defs>
            <use id="DataTurbo" xlink:href="#string" fill="#999999" fill-opacity="1" stroke="none" />
        </g>
    </g>
    <g id="logo__item--logo_0">
        <g id="group-1">
            <g id="group-2">
                <path id="path-0"
                    d="M17.978 0.011 L10.289 0.011 C4.689 0.011 0.2 4.544 0.2 10.1 L0.2 19.878 C0.689 17.744 1.4 15.7 2.422 13.7 5.667 7.3 11.311 2.411 17.978 0.011 Z"
                    fill="#999999" fill-opacity="1" stroke="none" />
                <path id="path-1"
                    d="M26.778 20.678 C23.622 20.678 21.044 23.255 21.044 26.411 21.044 29.566 23.622 32.144 26.778 32.144 29.933 32.144 32.511 29.566 32.511 26.411 32.511 23.255 29.933 20.678 26.778 20.678 Z M25.355 24.322 C25.355 24.322 25.311 24.366 25.311 24.366 25.311 24.366 25.267 24.411 25.267 24.411 25.311 24.366 25.311 24.366 25.355 24.322 Z"
                    fill="#999999" fill-opacity="1" stroke="none" />
                <path id="path-2"
                    d="M44.111 0.011 L36.333 0.011 35.755 1.656 C27.133 -1.278 17.356 0.589 10.422 6.5 3.311 12.633 -0.022 22.278 1.845 31.478 3.533 39.744 9.311 46.855 17.089 50.189 25.8 53.922 36.289 52.544 43.667 46.544 43.889 46.366 44.111 46.144 44.333 45.966 44.333 45.877 44.289 45.744 44.289 45.655 44.289 44.722 45.044 44.011 45.933 44.011 46.866 44.011 47.578 44.766 47.578 45.655 47.578 46.589 46.822 47.3 45.933 47.3 45.844 47.3 45.755 47.3 45.666 47.255 41.355 51.033 35.889 53.389 30.244 53.966 L44.111 53.966 C49.711 53.966 54.2 49.433 54.2 43.877 L54.2 10.1 C54.244 4.5 49.711 0.011 44.111 0.011 Z M18.289 47.833 C11.889 45.122 6.911 39.611 4.911 32.944 1.889 22.633 6.511 11.255 15.8 5.967 L16.733 7.611 C10.467 11.167 6.333 17.833 5.933 24.989 5.533 32.1 8.778 39.122 14.467 43.389 18.689 46.589 24.067 48.1 29.355 47.611 34.378 47.166 39 44.9 42.555 41.433 L43.889 42.766 C37.133 49.389 27.044 51.477 18.289 47.833 Z M44.244 35.789 C44.422 36.055 44.511 36.366 44.511 36.678 44.511 37.611 43.755 38.322 42.867 38.322 41.933 38.322 41.222 37.566 41.222 36.678 41.222 35.744 41.978 35.033 42.867 35.033 L43.089 35.033 C46.733 28.366 45.889 19.7 40.511 13.967 37.133 10.367 32.422 8.411 27.667 8.367 27.444 9.078 26.822 9.567 26.067 9.567 25.4 9.567 24.822 9.167 24.555 8.589 22.644 8.9 20.778 9.478 19.044 10.411 11.133 14.589 7.4 24.322 10.6 32.722 13.756 41.077 22.911 45.966 31.622 43.877 34.867 43.077 37.8 41.433 40.155 39.078 L41.133 40.055 C34.422 46.633 23.8 47.611 16.156 42.144 8.6 36.722 5.889 26.5 9.756 18.189 12.511 12.189 18.2 8.144 24.511 7.167 24.778 6.589 25.355 6.233 26.022 6.233 26.6 6.233 27.089 6.5 27.4 6.944 28.822 6.944 30.289 7.078 31.711 7.433 39.178 9.122 45.044 15.255 46.466 22.811 47.222 27.211 46.422 31.878 44.244 35.789 Z M12.689 18.322 C12.689 17.389 13.444 16.678 14.333 16.678 15.222 16.678 15.978 17.433 15.978 18.322 15.978 19.255 15.222 19.967 14.333 19.967 11.267 26.278 13.356 34.233 19.267 38.189 24.956 42.011 32.689 41.166 37.533 36.366 L38.511 37.344 C33.133 42.677 24.467 43.522 18.2 39.122 11.933 34.722 9.8 26.189 13.044 19.344 12.867 19.167 12.689 18.767 12.689 18.322 Z M38.466 29.255 L37.133 28.9 C38.289 24.722 36.511 20.144 32.867 17.789 29.178 15.389 24.244 15.7 20.867 18.5 17.4 21.389 16.244 26.366 18.111 30.5 19.844 34.233 23.755 36.633 27.889 36.411 29.889 36.322 31.755 35.611 33.355 34.455 33.222 34.233 33.178 33.966 33.178 33.7 33.178 32.766 33.933 32.055 34.822 32.055 35.755 32.055 36.467 32.811 36.467 33.7 36.467 34.633 35.711 35.344 34.822 35.344 34.689 35.344 34.6 35.344 34.467 35.3 29.222 39.344 21.267 38.233 17.622 32.5 15.178 28.678 15.267 23.566 17.8 19.833 20.2 16.322 24.511 14.367 28.733 14.9 35.578 15.7 40.289 22.589 38.466 29.255 Z M33.844 26.411 C33.844 30.322 30.689 33.478 26.778 33.478 22.867 33.478 19.711 30.322 19.711 26.411 19.667 22.5 22.867 19.344 26.778 19.344 30.644 19.344 33.844 22.5 33.844 26.411 Z"
                    fill="#999999" fill-opacity="1" stroke="none" />
                <path id="path-3"
                    d="M3.711 41.122 C2.067 38.5 0.911 35.655 0.2 32.678 L0.2 43.922 C0.2 49.522 4.733 54.011 10.289 54.011 L24.244 54.011 C15.844 53.077 8.2 48.233 3.711 41.122 Z"
                    fill="#999999" fill-opacity="1" stroke="none" />
            </g>
        </g>
    </g>
</svg>